<svg id="Layer_1" data-name="Layer 1" xmlns="http://www.w3.org/2000/svg" viewBox="0 0 358.3 59.95"><defs><style>.cls-1{fill:#fff;}</style></defs><title>aalto-logo-white</title><path class="cls-1" d="M328.32,0a30,30,0,1,0,30,30A30,30,0,0,0,328.32,0Zm0,47.06A17.09,17.09,0,1,1,345.41,30,17.09,17.09,0,0,1,328.32,47.06Z"/><polygon class="cls-1" points="275.55 1.63 257.98 1.63 246.03 1.63 228.46 1.63 228.46 13.57 246.03 13.57 246.03 57.83 257.98 57.83 257.98 13.57 275.55 13.57 275.55 1.63"/><polygon class="cls-1" points="180.29 1.63 167.57 1.63 167.57 46.03 167.57 57.83 180.29 57.83 208.1 57.83 208.1 46.03 180.29 46.03 180.29 1.63"/><path class="cls-1" d="M116.9,1.87H104.18l-23.47,56H93.43L98.38,46h24.69l5,11.8h12.72l-23.47-56ZM103.33,34.23l7.4-17.64,7.4,17.64Z"/><path class="cls-1" d="M36.19,1.87H23.47L0,57.83H12.72l5-11.8H42.36l5,11.8H60l-23.47-56ZM22.62,34.23,30,16.59l7.39,17.64Z"/></svg>